<svg width="60" height="60" viewBox="0 0 60 60" fill="none" xmlns="http://www.w3.org/2000/svg">
<path d="M30 55C39.94 55 50 51.565 50 45V15C50 8.435 39.94 5 30 5C20.06 5 10 8.435 10 15V45C10 51.565 20.06 55 30 55ZM30 50C20.695 50 15 46.7625 15 45V41.83C18.8525 43.925 24.4425 45 30 45C35.5575 45 41.1475 43.925 45 41.83V45C45 46.7625 39.305 50 30 50ZM30 10C39.305 10 45 13.2375 45 15C45 16.7625 39.305 20 30 20C20.695 20 15 16.7625 15 15C15 13.2375 20.695 10 30 10ZM15 21.83C18.8525 23.925 24.4425 25 30 25C35.5575 25 41.1475 23.925 45 21.83V25C45 26.7625 39.305 30 30 30C20.695 30 15 26.7625 15 25V21.83ZM15 31.83C18.8525 33.925 24.4425 35 30 35C35.5575 35 41.1475 33.925 45 31.83V35C45 36.7625 39.305 40 30 40C20.695 40 15 36.7625 15 35V31.83Z" fill="black"/>
</svg>
