<svg width="60" height="49" viewBox="0 0 60 49" fill="none" xmlns="http://www.w3.org/2000/svg">
<path d="M5.53857 12.25C5.53857 10.6255 6.18287 9.06763 7.32973 7.91897C8.47659 6.77031 10.0321 6.125 11.654 6.125H48.3463C49.9682 6.125 51.5236 6.77031 52.6705 7.91897C53.8174 9.06763 54.4617 10.6255 54.4617 12.25V36.75C54.4617 38.3745 53.8174 39.9324 52.6705 41.081C51.5236 42.2297 49.9682 42.875 48.3463 42.875H11.654C10.0321 42.875 8.47659 42.2297 7.32973 41.081C6.18287 39.9324 5.53857 38.3745 5.53857 36.75V12.25ZM11.654 9.1875C10.843 9.1875 10.0653 9.51016 9.49184 10.0845C8.91842 10.6588 8.59627 11.4378 8.59627 12.25V15.3125H51.404V12.25C51.404 11.4378 51.0818 10.6588 50.5084 10.0845C49.935 9.51016 49.1572 9.1875 48.3463 9.1875H11.654ZM51.404 21.4375H8.59627V36.75C8.59627 37.5622 8.91842 38.3412 9.49184 38.9155C10.0653 39.4898 10.843 39.8125 11.654 39.8125H48.3463C49.1572 39.8125 49.935 39.4898 50.5084 38.9155C51.0818 38.3412 51.404 37.5622 51.404 36.75V21.4375Z" fill="black"/>
<path d="M11.6541 30.625C11.6541 29.8128 11.9762 29.0338 12.5496 28.4595C13.1231 27.8852 13.9008 27.5625 14.7117 27.5625H17.7694C18.5804 27.5625 19.3581 27.8852 19.9316 28.4595C20.505 29.0338 20.8271 29.8128 20.8271 30.625V33.6875C20.8271 34.4997 20.505 35.2787 19.9316 35.853C19.3581 36.4273 18.5804 36.75 17.7694 36.75H14.7117C13.9008 36.75 13.1231 36.4273 12.5496 35.853C11.9762 35.2787 11.6541 34.4997 11.6541 33.6875V30.625Z" fill="black"/>
</svg>
