<svg width="60" height="60" viewBox="0 0 60 60" fill="none" xmlns="http://www.w3.org/2000/svg">
<path d="M32.8666 17.4498C29.3482 16.7623 25.7082 17.0622 22.3499 18.3164C22.1868 18.381 22.0381 18.477 21.9122 18.5991C21.7862 18.7211 21.6856 18.8668 21.6159 19.0278C21.4753 19.3528 21.4695 19.7204 21.5999 20.0498C21.7303 20.3791 21.9862 20.6431 22.3112 20.7837C22.6363 20.9244 23.0039 20.9302 23.3332 20.7998C26.2249 19.7064 29.3615 19.4297 32.3999 19.9998C32.578 20.0466 32.7639 20.0561 32.9458 20.0276C33.1278 19.999 33.3019 19.9331 33.4571 19.834C33.6123 19.7348 33.7452 19.6046 33.8476 19.4515C33.95 19.2984 34.0195 19.1257 34.0519 18.9444C34.0842 18.7631 34.0786 18.5771 34.0355 18.398C33.9924 18.219 33.9126 18.0508 33.8012 17.9041C33.6899 17.7574 33.5493 17.6354 33.3885 17.5457C33.2276 17.4561 33.0499 17.4007 32.8666 17.3831V17.4498Z" fill="black"/>
<path d="M42.3001 30.1168C43.552 30.1168 44.5668 29.102 44.5668 27.8502C44.5668 26.5983 43.552 25.5835 42.3001 25.5835C41.0483 25.5835 40.0334 26.5983 40.0334 27.8502C40.0334 29.102 41.0483 30.1168 42.3001 30.1168Z" fill="black"/>
<path d="M59.1835 31.0502C59.029 30.8217 58.8202 30.6351 58.5759 30.5071C58.3316 30.3791 58.0593 30.3137 57.7835 30.3169C56.4369 30.13 55.2015 29.468 54.3001 28.4502C52.5656 26.5543 51.0915 24.4357 49.9168 22.1502L54.7168 14.6502C55.0081 14.2156 55.1865 13.7153 55.236 13.1944C55.2854 12.6736 55.2044 12.1486 55.0001 11.6669C54.7956 11.2287 54.4864 10.8475 54.0999 10.5568C53.7133 10.2662 53.2612 10.0751 52.7835 10.0002C49.731 9.58888 46.6243 10.0212 43.8001 11.2502C42.1816 11.9632 40.6587 12.8758 39.2668 13.9669C36.5407 12.7445 33.638 11.9626 30.6668 11.6502C18.8501 10.5002 8.05012 18.1669 6.66679 28.3336C6.12768 28.0911 5.64485 27.7392 5.24892 27.3002C4.85298 26.8612 4.55259 26.3448 4.36679 25.7836C4.24795 25.3988 4.20738 24.9941 4.24745 24.5933C4.28753 24.1926 4.40744 23.8039 4.60012 23.4502C4.77291 23.1533 5.01986 22.9064 5.31679 22.7336C5.51924 22.611 5.69557 22.4498 5.83571 22.2591C5.97585 22.0683 6.07705 21.8519 6.13354 21.6221C6.19003 21.3922 6.2007 21.1535 6.16494 20.9196C6.12918 20.6856 6.04769 20.461 5.92512 20.2586C5.80255 20.0561 5.64131 19.8798 5.4506 19.7397C5.25988 19.5995 5.04343 19.4983 4.81361 19.4418C4.58378 19.3853 4.34508 19.3747 4.11114 19.4104C3.87719 19.4462 3.65257 19.5277 3.45012 19.6502C2.64332 20.1455 1.97753 20.8399 1.51679 21.6669C1.08842 22.443 0.819145 23.2968 0.724707 24.1782C0.630269 25.0596 0.712567 25.951 0.966786 26.8002C1.2797 27.8293 1.79861 28.784 2.49198 29.6063C3.18534 30.4286 4.03868 31.1013 5.00012 31.5836L6.53345 32.3502C6.72501 36.4073 7.75798 40.3803 9.56678 44.0169L9.85012 44.6502C11.2957 47.7075 13.1395 50.56 15.3335 53.1336C15.4896 53.3114 15.6819 53.4538 15.8974 53.5515C16.1129 53.6493 16.3468 53.6999 16.5835 53.7002H24.1168C24.3898 53.6989 24.6582 53.6305 24.8986 53.5011C25.1389 53.3717 25.3438 53.1852 25.4952 52.9581C25.6467 52.731 25.74 52.4701 25.767 52.1985C25.794 51.9269 25.7539 51.6527 25.6501 51.4002L25.0001 49.9002L26.9668 50.1169C29.1836 50.3361 31.4166 50.3361 33.6335 50.1169C34.2501 51.1169 34.9168 52.1169 35.6501 53.1002C35.8036 53.3103 36.0041 53.4815 36.2357 53.6002C36.4672 53.7188 36.7233 53.7816 36.9835 53.7836H44.2168C44.4919 53.7834 44.7626 53.715 45.0049 53.5847C45.2472 53.4544 45.4534 53.2662 45.6052 53.0368C45.7571 52.8074 45.8498 52.544 45.875 52.2701C45.9003 51.9961 45.8574 51.7202 45.7501 51.4669C45.4668 50.8002 45.1835 50.0836 44.9668 49.4669C44.6668 48.5836 44.4334 47.8002 44.2501 47.0502C46.0908 46.0565 47.78 44.805 49.2668 43.3336C50.9274 43.5343 52.6062 43.5343 54.2668 43.3336C54.5549 43.29 54.8265 43.1717 55.0547 42.9904C55.2828 42.809 55.4593 42.5711 55.5668 42.3002L59.3335 32.6169C59.4394 32.3636 59.4812 32.0881 59.455 31.8148C59.4289 31.5414 59.3356 31.2788 59.1835 31.0502V31.0502ZM52.8835 40.1169C51.5751 40.1914 50.2625 40.13 48.9668 39.9336C47.4913 39.6843 46.0668 39.1945 44.7501 38.4836C44.3602 38.2902 43.91 38.2571 43.496 38.3912C43.0819 38.5254 42.7368 38.8162 42.5343 39.2015C42.3319 39.5869 42.2882 40.0361 42.4126 40.4532C42.537 40.8703 42.8197 41.2221 43.2001 41.4336C43.8967 41.7988 44.6146 42.1216 45.3501 42.4002C44.4413 43.1762 43.4322 43.8265 42.3501 44.3336L40.5835 45.1336C40.5835 45.1336 41.4001 48.7836 41.9501 50.4002H37.9835C37.5835 49.8336 35.5668 46.4669 35.5668 46.4669L34.4501 46.6169C32.1045 46.9551 29.7277 47.0222 27.3668 46.8169C26.2668 46.7169 24.4335 46.4836 23.0001 46.2336L20.4168 45.7836C20.4168 45.7836 21.4668 49.8336 21.6668 50.3502H17.3668C15.6103 48.1995 14.1216 45.8434 12.9335 43.3336L12.6335 42.6836C10.468 38.5152 9.55348 33.8096 10.0001 29.1336C10.9001 20.4836 20.2001 13.9502 30.3168 14.9002C33.2597 15.2301 36.1238 16.0646 38.7835 17.3669L39.8168 17.8502L40.6501 17.0669C41.9479 15.9072 43.4147 14.9518 45.0001 14.2336C47.0977 13.3238 49.3891 12.9515 51.6668 13.1502L46.0335 21.9669L46.4501 22.8002C47.9057 25.7321 49.7624 28.4471 51.9668 30.8669C52.9906 31.8676 54.203 32.655 55.5335 33.1836L52.8835 40.1169Z" fill="black"/>
</svg>
