<svg width="60" height="60" viewBox="0 0 60 60" fill="none" xmlns="http://www.w3.org/2000/svg">
<path d="M47.5001 18.1252H46.8751V12.5002C46.8686 11.3419 46.4055 10.2329 45.5865 9.41389C44.7674 8.59484 43.6584 8.13179 42.5001 8.12523C42.3017 8.08912 42.0985 8.08912 41.9001 8.12523L12.1501 18.1252H11.4751L11.0501 18.2752H10.7001L10.3001 18.5002L10.0001 18.9252L9.65012 19.2252L9.37512 19.4752L9.07512 19.8502C8.99513 19.922 8.92756 20.0064 8.87512 20.1002C8.78233 20.2448 8.69883 20.3951 8.62512 20.5502L8.47512 20.8252C8.40551 21.0048 8.34707 21.1885 8.30012 21.3752C8.31137 21.4666 8.31137 21.5589 8.30012 21.6502C8.27431 21.933 8.27431 22.2175 8.30012 22.5002V47.5002C8.30537 48.629 8.74424 49.7126 9.52597 50.5269C10.3077 51.3412 11.3725 51.8239 12.5001 51.8752H47.5001C48.6584 51.8687 49.7674 51.4056 50.5865 50.5866C51.4055 49.7675 51.8686 48.6585 51.8751 47.5002V22.5002C51.8686 21.3419 51.4055 20.2329 50.5865 19.4139C49.7674 18.5948 48.6584 18.1318 47.5001 18.1252ZM42.7001 11.9002C42.8233 11.9456 42.9298 12.0273 43.0056 12.1344C43.0815 12.2415 43.1231 12.369 43.1251 12.5002V18.1252H24.0501L42.7001 11.9002ZM48.1251 47.5002C48.1251 47.666 48.0593 47.825 47.9421 47.9422C47.8249 48.0594 47.6659 48.1252 47.5001 48.1252H12.5001C12.3344 48.1252 12.1754 48.0594 12.0582 47.9422C11.941 47.825 11.8751 47.666 11.8751 47.5002V22.5002C11.8751 22.3345 11.941 22.1755 12.0582 22.0583C12.1754 21.9411 12.3344 21.8752 12.5001 21.8752H47.5001C47.6659 21.8752 47.8249 21.9411 47.9421 22.0583C48.0593 22.1755 48.1251 22.3345 48.1251 22.5002V47.5002Z" fill="black"/>
<path d="M41.25 38.125C42.9759 38.125 44.375 36.7259 44.375 35C44.375 33.2741 42.9759 31.875 41.25 31.875C39.5241 31.875 38.125 33.2741 38.125 35C38.125 36.7259 39.5241 38.125 41.25 38.125Z" fill="black"/>
</svg>
