<svg width="32" height="32" viewBox="0 0 32 32" fill="none" xmlns="http://www.w3.org/2000/svg">
<path d="M22.5 9H4.5C3.83797 9.00329 3.20399 9.26773 2.73586 9.73586C2.26773 10.204 2.00329 10.838 2 11.5V25.5C2.00329 26.162 2.26773 26.796 2.73586 27.2641C3.20399 27.7323 3.83797 27.9967 4.5 28H22.5C23.162 27.9967 23.796 27.7323 24.2641 27.2641C24.7323 26.796 24.9967 26.162 25 25.5V11.5C24.9967 10.838 24.7323 10.204 24.2641 9.73586C23.796 9.26773 23.162 9.00329 22.5 9ZM22 25H5V12H22V25ZM30 6.5V22C30 22.3978 29.842 22.7794 29.5607 23.0607C29.2794 23.342 28.8978 23.5 28.5 23.5C28.1022 23.5 27.7206 23.342 27.4393 23.0607C27.158 22.7794 27 22.3978 27 22V7H8C7.60218 7 7.22064 6.84196 6.93934 6.56066C6.65804 6.27936 6.5 5.89782 6.5 5.5C6.5 5.10218 6.65804 4.72064 6.93934 4.43934C7.22064 4.15804 7.60218 4 8 4H27.5C28.162 4.00329 28.796 4.26773 29.2641 4.73586C29.7323 5.20399 29.9967 5.83797 30 6.5Z" fill="black"/>
</svg>
