<svg width="32" height="32" viewBox="0 0 32 32" fill="none" xmlns="http://www.w3.org/2000/svg">
<path d="M17.3333 2.66675C16.9797 2.66675 16.6406 2.80722 16.3905 3.05727C16.1405 3.30732 16 3.64646 16 4.00008V14.6667C16 15.0204 16.1405 15.3595 16.3905 15.6096C16.6406 15.8596 16.9797 16.0001 17.3333 16.0001H28C28.3536 16.0001 28.6928 15.8596 28.9428 15.6096C29.1929 15.3595 29.3333 15.0204 29.3333 14.6667C29.3333 11.4841 28.0691 8.4319 25.8186 6.18147C23.5682 3.93103 20.5159 2.66675 17.3333 2.66675ZM18.6667 13.3334V5.42675C20.6616 5.71423 22.5099 6.63978 23.9351 8.06499C25.3603 9.4902 26.2859 11.3385 26.5733 13.3334H18.6667Z" fill="black"/>
<path d="M27.76 18.7467C27.5946 18.6875 27.4191 18.6617 27.2436 18.6706C27.0682 18.6795 26.8962 18.723 26.7376 18.7986C26.579 18.8741 26.4369 18.9803 26.3195 19.111C26.2021 19.2417 26.1116 19.3943 26.0533 19.56C25.4525 21.2586 24.4311 22.7772 23.0846 23.9744C21.7381 25.1715 20.1104 26.008 18.3531 26.4059C16.5959 26.8039 14.7665 26.7502 13.0357 26.2499C11.3048 25.7497 9.72887 24.8191 8.45487 23.5451C7.18087 22.2711 6.25033 20.6952 5.75008 18.9643C5.24982 17.2335 5.19615 15.4041 5.59407 13.6469C5.99199 11.8897 6.82853 10.2619 8.02565 8.91536C9.22276 7.56886 10.7414 6.54754 12.44 5.94667C12.7742 5.82997 13.0483 5.58531 13.2021 5.2665C13.3559 4.94768 13.3767 4.58084 13.26 4.24667C13.1433 3.91249 12.8986 3.63837 12.5798 3.48459C12.261 3.33081 11.8942 3.30997 11.56 3.42667C9.43606 4.17704 7.53685 5.45329 6.03963 7.13629C4.54241 8.8193 3.49599 10.8542 2.99804 13.0511C2.50008 15.2479 2.56684 17.5352 3.19206 19.6993C3.81729 21.8633 4.9806 23.8338 6.57343 25.4266C8.16625 27.0194 10.1367 28.1827 12.3008 28.8079C14.4648 29.4332 16.7521 29.4999 18.9489 29.002C21.1458 28.504 23.1807 27.4576 24.8637 25.9604C26.5467 24.4632 27.823 22.5639 28.5733 20.44C28.6887 20.1075 28.6679 19.743 28.5155 19.4258C28.3632 19.1086 28.0916 18.8645 27.76 18.7467Z" fill="black"/>
</svg>
