<svg width="32" height="32" viewBox="0 0 32 32" fill="none" xmlns="http://www.w3.org/2000/svg">
<path d="M6.6667 29.3333H25.3334C26.0406 29.3333 26.7189 29.0523 27.219 28.5522C27.7191 28.0521 28 27.3738 28 26.6666V14.6666C28.001 14.4911 27.9674 14.3172 27.9011 14.1547C27.8347 13.9923 27.7369 13.8445 27.6134 13.7199L16.9467 3.05325C16.6969 2.80492 16.3589 2.66553 16.0067 2.66553C15.6545 2.66553 15.3165 2.80492 15.0667 3.05325L4.40003 13.7199C4.27405 13.8434 4.17382 13.9907 4.10516 14.1532C4.0365 14.3157 4.00076 14.4902 4.00003 14.6666V26.6666C4.00003 27.3738 4.28098 28.0521 4.78108 28.5522C5.28118 29.0523 5.95945 29.3333 6.6667 29.3333ZM13.3334 26.6666V19.9999H18.6667V26.6666H13.3334ZM6.6667 15.2133L16 5.87992L25.3334 15.2133V26.6666H21.3334V19.9999C21.3334 19.2927 21.0524 18.6144 20.5523 18.1143C20.0522 17.6142 19.3739 17.3333 18.6667 17.3333H13.3334C12.6261 17.3333 11.9478 17.6142 11.4477 18.1143C10.9476 18.6144 10.6667 19.2927 10.6667 19.9999V26.6666H6.6667V15.2133Z" fill="black"/>
</svg>
