<svg width="32" height="32" viewBox="0 0 32 32" fill="none" xmlns="http://www.w3.org/2000/svg">
<path d="M18.4267 29.3333H13.5733C13.2692 29.3333 12.9743 29.2294 12.7373 29.0388C12.5004 28.8482 12.3357 28.5823 12.2707 28.2853L11.728 25.7733C11.0041 25.4561 10.3176 25.0594 9.68132 24.5906L7.23199 25.3706C6.94207 25.4631 6.62925 25.4536 6.34548 25.3437C6.06171 25.2338 5.82406 25.0302 5.67199 24.7666L3.23999 20.5653C3.08952 20.3015 3.03303 19.9944 3.07978 19.6943C3.12652 19.3942 3.27373 19.1188 3.49732 18.9133L5.39732 17.18C5.31092 16.3948 5.31092 15.6025 5.39732 14.8173L3.49732 13.088C3.27342 12.8823 3.12601 12.6067 3.07925 12.3063C3.0325 12.0059 3.08917 11.6986 3.23999 11.4346L5.66666 7.23063C5.81872 6.96705 6.05638 6.76341 6.34015 6.65354C6.62392 6.54367 6.93674 6.53417 7.22666 6.62663L9.67599 7.40663C10.0013 7.16663 10.34 6.94263 10.6893 6.73996C11.0267 6.55063 11.3733 6.37863 11.728 6.22529L12.272 3.71596C12.3368 3.41889 12.5011 3.15288 12.7378 2.96202C12.9745 2.77117 13.2693 2.66695 13.5733 2.66663H18.4267C18.7307 2.66695 19.0255 2.77117 19.2622 2.96202C19.4989 3.15288 19.6632 3.41889 19.728 3.71596L20.2773 6.22663C21.0008 6.54382 21.6868 6.94048 22.3227 7.40929L24.7733 6.62929C25.0631 6.53718 25.3756 6.54685 25.6591 6.65671C25.9425 6.76656 26.18 6.97 26.332 7.23329L28.7587 11.4373C29.068 11.98 28.9613 12.6666 28.5013 13.0893L26.6013 14.8226C26.6877 15.6078 26.6877 16.4001 26.6013 17.1853L28.5013 18.9186C28.9613 19.3426 29.068 20.028 28.7587 20.5706L26.332 24.7746C26.1799 25.0382 25.9423 25.2418 25.6585 25.3517C25.3747 25.4616 25.0619 25.4711 24.772 25.3786L22.3227 24.5986C21.6868 25.0671 21.0008 25.4633 20.2773 25.78L19.728 28.2853C19.663 28.5821 19.4985 28.8478 19.2618 29.0384C19.0252 29.229 18.7305 29.333 18.4267 29.3333ZM10.16 21.6386L11.2533 22.4386C11.5 22.62 11.756 22.7866 12.0227 22.9386C12.2733 23.084 12.5293 23.2146 12.7947 23.3333L14.0387 23.8786L14.648 26.6666H17.3547L17.964 23.8773L19.208 23.332C19.7507 23.092 20.2667 22.7946 20.7453 22.444L21.8387 21.644L24.5613 22.5106L25.9147 20.1666L23.804 18.2426L23.9533 16.8933C24.02 16.3026 24.02 15.7066 23.9533 15.1173L23.804 13.768L25.916 11.84L24.5613 9.49463L21.84 10.3613L20.7453 9.56129C20.2664 9.20888 19.751 8.90894 19.208 8.66663L17.964 8.12129L17.3547 5.33329H14.648L14.0347 8.12263L12.7947 8.66663C12.2509 8.90477 11.7353 9.2026 11.2573 9.55463L10.1627 10.3546L7.44265 9.48796L6.08666 11.84L8.19732 13.7613L8.04799 15.112C7.98132 15.7026 7.98132 16.2986 8.04799 16.888L8.19732 18.2373L6.08666 20.1613L7.43999 22.5053L10.16 21.6386ZM15.9947 21.3333C14.5802 21.3333 13.2236 20.7714 12.2234 19.7712C11.2232 18.771 10.6613 17.4144 10.6613 16C10.6613 14.5855 11.2232 13.2289 12.2234 12.2287C13.2236 11.2285 14.5802 10.6666 15.9947 10.6666C17.4091 10.6666 18.7657 11.2285 19.7659 12.2287C20.7661 13.2289 21.328 14.5855 21.328 16C21.328 17.4144 20.7661 18.771 19.7659 19.7712C18.7657 20.7714 17.4091 21.3333 15.9947 21.3333ZM15.9947 13.3333C15.4725 13.3338 14.9619 13.4877 14.5264 13.7757C14.0908 14.0638 13.7494 14.4734 13.5445 14.9537C13.3396 15.434 13.2803 15.9639 13.3738 16.4776C13.4674 16.9914 13.7097 17.4664 14.0707 17.8436C14.4317 18.2209 14.8956 18.4839 15.4047 18.5999C15.9139 18.716 16.4459 18.68 16.9347 18.4964C17.4236 18.3129 17.8478 17.9898 18.1547 17.5674C18.4617 17.1449 18.6378 16.6416 18.6613 16.12V16.6533V16C18.6613 15.2927 18.3804 14.6144 17.8803 14.1143C17.3802 13.6142 16.7019 13.3333 15.9947 13.3333Z" fill="black"/>
</svg>
