<svg width="24" height="24" viewBox="0 0 24 24" fill="none" xmlns="http://www.w3.org/2000/svg">
<path d="M21.9605 9.72062H17.1894L12.8267 3.05542C12.7352 2.91703 12.6117 2.80383 12.467 2.7259C12.3223 2.64797 12.1609 2.60772 11.9973 2.60872C11.8337 2.60973 11.6728 2.65196 11.5291 2.73166C11.3853 2.81137 11.2631 2.92607 11.1733 3.06558L6.81057 9.72062H2.0395C1.49168 9.72062 1.04346 10.1778 1.04346 10.7367C1.04346 10.8281 1.04346 10.9195 1.0833 11.011L3.61326 20.4296C3.84235 21.2831 4.60931 21.913 5.52567 21.913H18.4743C19.3906 21.913 20.1576 21.2831 20.3967 20.4296L22.9266 11.011L22.9565 10.7367C22.9565 10.1778 22.5083 9.72062 21.9605 9.72062ZM12 5.45327L14.7889 9.72062H9.21105L12 5.45327ZM18.4743 19.881H5.52567L3.34433 11.7527H20.6656L18.4743 19.881ZM12 13.7848C10.9043 13.7848 10.0079 14.6992 10.0079 15.8168C10.0079 16.9345 10.9043 17.8489 12 17.8489C13.0956 17.8489 13.9921 16.9345 13.9921 15.8168C13.9921 14.6992 13.0956 13.7848 12 13.7848Z" fill="#1C1D21" fill-opacity="0.8"/>
</svg>
