<svg width="18" height="22" viewBox="0 0 18 22" fill="none" xmlns="http://www.w3.org/2000/svg">
<path d="M9 0C14.0143 0 18 1.5125 18 3.4375V17.875C18 18.6355 17.4254 19.25 16.7143 19.25V20.625C16.7143 21.3855 16.1397 22 15.4286 22H14.1429C13.4317 22 12.8571 21.3855 12.8571 20.625V19.25H5.14286V20.625C5.14286 21.3855 4.5683 22 3.85714 22H2.57143C1.86147 22 1.28571 21.3855 1.28571 20.625V19.25C0.575759 19.25 0 18.6355 0 17.875V3.4375C0 1.5125 3.98531 0 9 0ZM2.57143 11C2.57143 11.7605 3.14719 12.375 3.85714 12.375H14.1429C14.854 12.375 15.4286 11.7605 15.4286 11V5.5C15.4286 4.73945 14.854 4.125 14.1429 4.125H3.85714C3.14719 4.125 2.57143 4.73945 2.57143 5.5V11ZM3.21429 17.1875C3.92424 17.1875 4.5 16.573 4.5 15.8125C4.5 15.052 3.92424 14.4375 3.21429 14.4375C2.50433 14.4375 1.92857 15.052 1.92857 15.8125C1.92857 16.573 2.50433 17.1875 3.21429 17.1875ZM14.7857 17.1875C15.4969 17.1875 16.0714 16.573 16.0714 15.8125C16.0714 15.052 15.4969 14.4375 14.7857 14.4375C14.0746 14.4375 13.5 15.052 13.5 15.8125C13.5 16.573 14.0746 17.1875 14.7857 17.1875Z" fill="#1C1D21" fill-opacity="0.8"/>
</svg>
