<svg width="23" height="23" viewBox="0 0 23 23" fill="none" xmlns="http://www.w3.org/2000/svg">
<path d="M14.3022 21.4535H12.2092C11.8392 21.4531 11.4845 21.3085 11.2229 21.0514C10.9613 20.7944 10.8142 20.4458 10.8138 20.0822V16.654H12.2092V20.0822H14.3022V16.654H15.6976V13.9114C15.6974 13.7296 15.6238 13.5553 15.493 13.4268C15.3622 13.2982 15.1849 13.2259 14.9999 13.2257H8.91615L7.52081 9.11186H3.13941C2.95443 9.11205 2.77708 9.18434 2.64628 9.31289C2.51548 9.44143 2.44192 9.61572 2.44174 9.79751V13.9114H3.83708V20.0822H6.62778V15.2827H8.02313V20.0822C8.02276 20.4458 7.87563 20.7944 7.61403 21.0514C7.35244 21.3085 6.99774 21.4531 6.62778 21.4535H3.83708C3.46713 21.4531 3.11243 21.3085 2.85083 21.0514C2.58923 20.7944 2.44211 20.4458 2.44174 20.0822V15.2827C2.07178 15.2823 1.71708 15.1377 1.45548 14.8806C1.19388 14.6235 1.04676 14.275 1.04639 13.9114V9.79751C1.04694 9.25214 1.26763 8.72927 1.66003 8.34364C2.05243 7.95801 2.58448 7.74112 3.13941 7.74057H7.52081C7.81362 7.74039 8.09907 7.83084 8.33663 7.99908C8.5742 8.16732 8.75182 8.40481 8.84429 8.67785L9.92081 11.8544H14.9999C15.5548 11.855 16.0869 12.0719 16.4793 12.4575C16.8717 12.8431 17.0923 13.366 17.0929 13.9114V16.654C17.0925 17.0175 16.9454 17.3661 16.6838 17.6232C16.4222 17.8803 16.0675 18.0249 15.6976 18.0253V20.0822C15.6972 20.4458 15.5501 20.7944 15.2885 21.0514C15.0269 21.3085 14.6722 21.4531 14.3022 21.4535ZM19.8836 21.4535H18.4882V13.9114H20.5813V9.79751C20.5811 9.61572 20.5075 9.44143 20.3767 9.31289C20.2459 9.18434 20.0686 9.11205 19.8836 9.11186H17.0929V7.74057H19.8836C20.4385 7.74112 20.9706 7.95801 21.363 8.34364C21.7554 8.72927 21.9761 9.25214 21.9766 9.79751V13.9114C21.9763 14.275 21.8291 14.6235 21.5675 14.8806C21.3059 15.1377 20.9512 15.2823 20.5813 15.2827H19.8836V21.4535ZM5.23243 7.05493C4.68049 7.05493 4.14093 6.89408 3.682 6.59272C3.22308 6.29136 2.86539 5.86303 2.65416 5.36189C2.44294 4.86075 2.38768 4.3093 2.49536 3.7773C2.60304 3.24529 2.86883 2.75661 3.25911 2.37305C3.6494 1.98949 4.14665 1.72829 4.688 1.62246C5.22934 1.51664 5.79045 1.57095 6.30039 1.77853C6.81032 1.98611 7.24617 2.33763 7.55281 2.78865C7.85946 3.23966 8.02313 3.76991 8.02313 4.31235C8.02221 5.03945 7.72789 5.73651 7.20473 6.25064C6.68158 6.76478 5.97229 7.05402 5.23243 7.05493V7.05493ZM5.23243 2.94106C4.95646 2.94106 4.68668 3.02148 4.45722 3.17216C4.22776 3.32284 4.04891 3.53701 3.9433 3.78758C3.83769 4.03815 3.81006 4.31387 3.8639 4.57987C3.91774 4.84588 4.05063 5.09022 4.24577 5.282C4.44092 5.47377 4.68954 5.60438 4.96021 5.65729C5.23089 5.7102 5.51144 5.68304 5.76641 5.57925C6.02138 5.47546 6.2393 5.2997 6.39262 5.07419C6.54595 4.84869 6.62778 4.58356 6.62778 4.31235C6.62741 3.94877 6.48028 3.60019 6.21869 3.3431C5.95709 3.08601 5.60239 2.94142 5.23243 2.94106V2.94106ZM17.7906 7.05493C17.2386 7.05493 16.6991 6.89408 16.2401 6.59272C15.7812 6.29136 15.4235 5.86303 15.2123 5.36189C15.0011 4.86075 14.9458 4.3093 15.0535 3.7773C15.1612 3.24529 15.427 2.75661 15.8173 2.37305C16.2075 1.98949 16.7048 1.72829 17.2461 1.62246C17.7875 1.51664 18.3486 1.57095 18.8585 1.77853C19.3685 1.98611 19.8043 2.33763 20.111 2.78865C20.4176 3.23966 20.5813 3.76991 20.5813 4.31235C20.5803 5.03945 20.286 5.73651 19.7629 6.25064C19.2397 6.76478 18.5304 7.05402 17.7906 7.05493V7.05493ZM17.7906 2.94106C17.5146 2.94106 17.2448 3.02148 17.0154 3.17216C16.7859 3.32284 16.607 3.53701 16.5014 3.78758C16.3958 4.03815 16.3682 4.31387 16.422 4.57987C16.4759 4.84588 16.6088 5.09022 16.8039 5.282C16.9991 5.47377 17.2477 5.60438 17.5184 5.65729C17.789 5.7102 18.0696 5.68304 18.3246 5.57925C18.5795 5.47546 18.7974 5.2997 18.9508 5.07419C19.1041 4.84869 19.1859 4.58356 19.1859 4.31235C19.1856 3.94877 19.0384 3.60019 18.7768 3.3431C18.5152 3.08601 18.1605 2.94142 17.7906 2.94106V2.94106Z" fill="#1C1D21" fill-opacity="0.8"/>
<path d="M12.8197 10.9884C12.354 10.9884 11.8988 10.8503 11.5116 10.5915C11.1243 10.3328 10.8225 9.96505 10.6443 9.53479C10.4661 9.10453 10.4195 8.63109 10.5103 8.17433C10.6012 7.71758 10.8254 7.29802 11.1547 6.96872C11.4841 6.63941 11.9036 6.41515 12.3604 6.3243C12.8171 6.23344 13.2906 6.28007 13.7208 6.45829C14.1511 6.63651 14.5188 6.93831 14.7776 7.32553C15.0363 7.71275 15.1744 8.168 15.1744 8.6337C15.1737 9.25798 14.9254 9.85648 14.4839 10.2979C14.0425 10.7393 13.444 10.9876 12.8197 10.9884ZM12.8197 7.62457C12.6202 7.62457 12.425 7.68375 12.2591 7.79464C12.0931 7.90552 11.9638 8.06313 11.8874 8.24753C11.811 8.43192 11.7911 8.63482 11.83 8.83058C11.8689 9.02633 11.965 9.20614 12.1062 9.34727C12.2473 9.4884 12.4271 9.58451 12.6229 9.62345C12.8186 9.66239 13.0215 9.6424 13.2059 9.56602C13.3903 9.48965 13.5479 9.3603 13.6588 9.19435C13.7697 9.0284 13.8289 8.83329 13.8289 8.6337C13.8285 8.36617 13.7221 8.1097 13.5329 7.92053C13.3437 7.73136 13.0873 7.62492 12.8197 7.62457Z" fill="#1C1D21" fill-opacity="0.8"/>
</svg>
