<svg width="26" height="26" viewBox="0 0 26 26" fill="none" xmlns="http://www.w3.org/2000/svg">
<path d="M20.5758 4.95079V5.99245H18.4925V3.90912H8.07585V5.99245H5.99251V3.90912H3.90918V22.6591H5.99251V20.5758H8.07585V22.6591H18.4925V20.5758H20.5758V22.6591H22.6592V3.90912H20.5758V4.95079ZM5.99251 8.07579H8.07585V10.1591H5.99251V8.07579ZM5.99251 12.2425H8.07585V14.3258H5.99251V12.2425ZM5.99251 18.4925V16.4091H8.07585V18.4925H5.99251ZM18.4925 18.4925V16.4091H20.5758V18.4925H18.4925ZM20.5758 14.3258H18.4925V12.2425H20.5758V14.3258ZM18.4925 10.1591V8.07579H20.5758V10.1591H18.4925Z" fill="#1C1D21" fill-opacity="0.8"/>
</svg>
