<svg width="25" height="28" viewBox="0 0 25 28" fill="none" xmlns="http://www.w3.org/2000/svg">
<path d="M18.5 3.98627C18.7449 3.9863 18.9813 4.08583 19.1644 4.26598C19.3474 4.44612 19.4643 4.69435 19.493 4.96359L19.5 5.09309V22.8022C19.4997 23.0843 19.4021 23.3556 19.2272 23.5608C19.0522 23.7659 18.813 23.8893 18.5586 23.9059C18.3042 23.9224 18.0536 23.8308 17.8582 23.6497C17.6627 23.4686 17.5371 23.2118 17.507 22.9317L17.5 22.8022V17.2681H16.5C16.2551 17.2681 16.0187 17.1685 15.8356 16.9884C15.6526 16.8082 15.5357 16.56 15.507 16.2908L15.5 16.1613V9.52036C15.5 7.07429 17 3.98627 18.5 3.98627ZM12.5 3.98627C12.7449 3.9863 12.9813 4.08583 13.1644 4.26598C13.3474 4.44612 13.4643 4.69435 13.493 4.96359L13.5 5.09309V10.6272C13.4999 11.6088 13.2052 12.5625 12.6622 13.3386C12.1192 14.1147 11.3586 14.6692 10.5 14.915V22.8022C10.4997 23.0843 10.4021 23.3556 10.2272 23.5608C10.0522 23.7659 9.81305 23.8893 9.55861 23.9059C9.30416 23.9224 9.05362 23.8308 8.85817 23.6497C8.66271 23.4686 8.5371 23.2118 8.507 22.9317L8.5 22.8022V14.915C7.67545 14.6791 6.94041 14.1581 6.40176 13.428C5.86312 12.6979 5.54897 11.7966 5.505 10.8552L5.5 10.6272V5.09309C5.50028 4.81098 5.59788 4.53964 5.77285 4.33451C5.94782 4.12937 6.18695 4.00593 6.44139 3.9894C6.69584 3.97286 6.94638 4.06449 7.14183 4.24556C7.33729 4.42662 7.4629 4.68346 7.493 4.96359L7.5 5.09309V10.6272C7.50001 11.0157 7.59243 11.3975 7.76796 11.734C7.9435 12.0705 8.19597 12.3499 8.5 12.5442V5.09309C8.50028 4.81098 8.59788 4.53964 8.77285 4.33451C8.94782 4.12937 9.18695 4.00593 9.44139 3.9894C9.69584 3.97286 9.94638 4.06449 10.1418 4.24556C10.3373 4.42662 10.4629 4.68346 10.493 4.96359L10.5 5.09309L10.501 12.5442C10.7801 12.3657 11.016 12.1151 11.1887 11.8139C11.3614 11.5127 11.4658 11.1697 11.493 10.8142L11.5 10.6272V5.09309C11.5 4.79954 11.6054 4.51802 11.7929 4.31045C11.9804 4.10288 12.2348 3.98627 12.5 3.98627V3.98627Z" fill="#1C1D21" fill-opacity="0.8"/>
</svg>
