<svg width="28" height="28" viewBox="0 0 28 28" fill="none" xmlns="http://www.w3.org/2000/svg">
<path d="M23.442 9.00483H19.6094C19.9626 8.44915 20.1703 7.78961 20.1703 7.08333C20.1703 5.10731 18.563 3.5 16.587 3.5C15.512 3.5 14.5434 3.97778 13.8865 4.7308C13.2295 3.97778 12.261 3.5 11.186 3.5C9.20996 3.5 7.60266 5.10731 7.60266 7.08333C7.60266 7.78961 7.80779 8.44915 8.16353 9.00483H4.33092C3.87132 9.00483 3.5 9.37615 3.5 9.83575V15.029C3.5 15.1432 3.59348 15.2367 3.70773 15.2367H4.74638V24.1691C4.74638 24.6287 5.11769 25 5.57729 25H22.1957C22.6553 25 23.0266 24.6287 23.0266 24.1691V15.2367H24.0652C24.1795 15.2367 24.2729 15.1432 24.2729 15.029V9.83575C24.2729 9.37615 23.9016 9.00483 23.442 9.00483ZM14.7693 7.08333C14.7693 6.08104 15.5847 5.2657 16.587 5.2657C17.5892 5.2657 18.4046 6.08104 18.4046 7.08333C18.4046 8.08563 17.5892 8.90097 16.587 8.90097H14.7693V7.08333ZM11.186 5.2657C12.1883 5.2657 13.0036 6.08104 13.0036 7.08333V8.90097H11.186C10.1837 8.90097 9.36836 8.08563 9.36836 7.08333C9.36836 6.08104 10.1837 5.2657 11.186 5.2657ZM5.2657 13.471V10.7705H13.0036V13.471H5.2657ZM6.51208 15.2367H13.0036V23.2343H6.51208V15.2367ZM21.2609 23.2343H14.7693V15.2367H21.2609V23.2343ZM22.5072 13.471H14.7693V10.7705H22.5072V13.471Z" fill="#1C1D21" fill-opacity="0.8"/>
</svg>
