<svg width="24" height="24" viewBox="0 0 24 24" fill="none" xmlns="http://www.w3.org/2000/svg">
<path d="M2 20.5714H7.71429V22H2V20.5714ZM12.7143 21.2857C12.6073 21.2856 12.5017 21.2615 12.4052 21.2152C12.3088 21.1688 12.224 21.1014 12.1571 21.0179L9.51429 17.7143H2V16.2857H9.85714C9.96414 16.2858 10.0698 16.3099 10.1662 16.3562C10.2626 16.4026 10.3474 16.47 10.4143 16.5536L12.6621 19.3621L16.4057 13.7464C16.4691 13.6514 16.5544 13.573 16.6543 13.5177C16.7543 13.4624 16.8661 13.4319 16.9803 13.4288C17.0944 13.4256 17.2077 13.4499 17.3106 13.4996C17.4135 13.5493 17.5029 13.6229 17.5714 13.7143L19.5 16.2857H22V17.7143H19.1429C19.032 17.7143 18.9226 17.6885 18.8234 17.6389C18.7242 17.5893 18.638 17.5173 18.5714 17.4286L17.0343 15.3786L13.3086 20.9679C13.2462 21.0614 13.1627 21.1388 13.0648 21.1939C12.9668 21.249 12.8573 21.2803 12.745 21.285L12.7143 21.2857ZM8.42857 12V8.42857H9.14286C9.90033 8.42763 10.6265 8.1263 11.1621 7.59069C11.6977 7.05508 11.9991 6.3289 12 5.57143V3.42857H9.85714C9.1257 3.42977 8.4229 3.71299 7.895 4.21929C7.52512 3.54769 6.98193 2.98756 6.322 2.59724C5.66208 2.20691 4.90957 2.00067 4.14286 2H2V4.14286C2.00132 5.27909 2.45328 6.36841 3.25672 7.17185C4.06016 7.97529 5.14948 8.42725 6.28571 8.42857H7V12H2V13.4286H12V12H8.42857ZM9.85714 4.85714H10.5714V5.57143C10.5711 5.95019 10.4204 6.31334 10.1526 6.58116C9.88477 6.84899 9.52162 6.99962 9.14286 7H8.42857V6.28571C8.42895 5.90695 8.57958 5.54381 8.84741 5.27598C9.11524 5.00815 9.47838 4.85752 9.85714 4.85714V4.85714ZM6.28571 7C5.52824 6.99906 4.80207 6.69773 4.26645 6.16212C3.73084 5.62651 3.42952 4.90033 3.42857 4.14286V3.42857H4.14286C4.90033 3.42952 5.62651 3.73084 6.16212 4.26645C6.69773 4.80207 6.99906 5.52824 7 6.28571V7H6.28571Z" fill="#1C1D21" fill-opacity="0.8"/>
</svg>
