<svg width="32" height="33" viewBox="0 0 32 33" fill="none" xmlns="http://www.w3.org/2000/svg">
<path d="M6.53058 29.8877H24.8163C26.257 29.8877 27.4285 28.7161 27.4285 27.2755V12.9081C27.4285 12.5617 27.2909 12.2295 27.046 11.9845C26.801 11.7396 26.4688 11.602 26.1224 11.602H22.2041V10.2959C22.2041 6.69489 19.2744 3.76526 15.6734 3.76526C12.0725 3.76526 9.14283 6.69489 9.14283 10.2959V11.602H5.22446C4.87805 11.602 4.54583 11.7396 4.30089 11.9845C4.05594 12.2295 3.91833 12.5617 3.91833 12.9081V27.2755C3.91833 28.7161 5.08993 29.8877 6.53058 29.8877ZM11.7551 10.2959C11.7551 8.13554 13.5131 6.3775 15.6734 6.3775C17.8338 6.3775 19.5918 8.13554 19.5918 10.2959V11.602H11.7551V10.2959ZM6.53058 14.2142H9.14283V16.8265H11.7551V14.2142H19.5918V16.8265H22.2041V14.2142H24.8163L24.8189 27.2755H6.53058V14.2142Z" fill="#1C1D21" fill-opacity="0.8"/>
</svg>
